<?xml version="1.0" encoding="utf-8" standalone="no"?>
<!DOCTYPE svg PUBLIC "-//W3C//DTD SVG 1.1//EN"
  "http://www.w3.org/Graphics/SVG/1.1/DTD/svg11.dtd">
<svg xmlns:xlink="http://www.w3.org/1999/xlink" width="352.582812pt" height="225.118125pt" viewBox="0 0 352.582812 225.118125" xmlns="http://www.w3.org/2000/svg" version="1.1">
 <metadata>
  <rdf:RDF xmlns:dc="http://purl.org/dc/elements/1.1/" xmlns:cc="http://creativecommons.org/ns#" xmlns:rdf="http://www.w3.org/1999/02/22-rdf-syntax-ns#">
   <cc:Work>
    <dc:type rdf:resource="http://purl.org/dc/dcmitype/StillImage"/>
    <dc:date>2024-03-01T16:03:59.276811</dc:date>
    <dc:format>image/svg+xml</dc:format>
    <dc:creator>
     <cc:Agent>
      <dc:title>Matplotlib v3.8.3, https://matplotlib.org/</dc:title>
     </cc:Agent>
    </dc:creator>
   </cc:Work>
  </rdf:RDF>
 </metadata>
 <defs>
  <style type="text/css">*{stroke-linejoin: round; stroke-linecap: butt}</style>
 </defs>
 <g id="figure_1">
  <g id="patch_1">
   <path d="M 0 225.118125 
L 352.582813 225.118125 
L 352.582813 0 
L 0 0 
z
" style="fill: #ffffff"/>
  </g>
  <g id="axes_1">
   <g id="patch_2">
    <path d="M 38.482813 201.24 
L 345.382813 201.24 
L 345.382813 7.2 
L 38.482813 7.2 
z
" style="fill: #ffffff"/>
   </g>
   <g id="matplotlib.axis_1">
    <g id="xtick_1">
     <g id="line2d_1">
      <defs>
       <path id="mf32f334e0b" d="M 0 0 
L 0 3.5 
" style="stroke: #000000; stroke-width: 0.8"/>
      </defs>
      <g>
       <use xlink:href="#mf32f334e0b" x="52.432813" y="201.24" style="stroke: #000000; stroke-width: 0.8"/>
      </g>
     </g>
     <g id="text_1">
      <!-- −2.0 -->
      <g transform="translate(40.291406 215.838437) scale(0.1 -0.1)">
       <defs>
        <path id="DejaVuSans-2212" d="M 678 2272 
L 4684 2272 
L 4684 1741 
L 678 1741 
L 678 2272 
z
" transform="scale(0.015625)"/>
        <path id="DejaVuSans-32" d="M 1228 531 
L 3431 531 
L 3431 0 
L 469 0 
L 469 531 
Q 828 903 1448 1529 
Q 2069 2156 2228 2338 
Q 2531 2678 2651 2914 
Q 2772 3150 2772 3378 
Q 2772 3750 2511 3984 
Q 2250 4219 1831 4219 
Q 1534 4219 1204 4116 
Q 875 4013 500 3803 
L 500 4441 
Q 881 4594 1212 4672 
Q 1544 4750 1819 4750 
Q 2544 4750 2975 4387 
Q 3406 4025 3406 3419 
Q 3406 3131 3298 2873 
Q 3191 2616 2906 2266 
Q 2828 2175 2409 1742 
Q 1991 1309 1228 531 
z
" transform="scale(0.015625)"/>
        <path id="DejaVuSans-2e" d="M 684 794 
L 1344 794 
L 1344 0 
L 684 0 
L 684 794 
z
" transform="scale(0.015625)"/>
        <path id="DejaVuSans-30" d="M 2034 4250 
Q 1547 4250 1301 3770 
Q 1056 3291 1056 2328 
Q 1056 1369 1301 889 
Q 1547 409 2034 409 
Q 2525 409 2770 889 
Q 3016 1369 3016 2328 
Q 3016 3291 2770 3770 
Q 2525 4250 2034 4250 
z
M 2034 4750 
Q 2819 4750 3233 4129 
Q 3647 3509 3647 2328 
Q 3647 1150 3233 529 
Q 2819 -91 2034 -91 
Q 1250 -91 836 529 
Q 422 1150 422 2328 
Q 422 3509 836 4129 
Q 1250 4750 2034 4750 
z
" transform="scale(0.015625)"/>
       </defs>
       <use xlink:href="#DejaVuSans-2212"/>
       <use xlink:href="#DejaVuSans-32" x="83.789062"/>
       <use xlink:href="#DejaVuSans-2e" x="147.412109"/>
       <use xlink:href="#DejaVuSans-30" x="179.199219"/>
      </g>
     </g>
    </g>
    <g id="xtick_2">
     <g id="line2d_2">
      <g>
       <use xlink:href="#mf32f334e0b" x="87.316533" y="201.24" style="stroke: #000000; stroke-width: 0.8"/>
      </g>
     </g>
     <g id="text_2">
      <!-- −1.5 -->
      <g transform="translate(75.175127 215.838437) scale(0.1 -0.1)">
       <defs>
        <path id="DejaVuSans-31" d="M 794 531 
L 1825 531 
L 1825 4091 
L 703 3866 
L 703 4441 
L 1819 4666 
L 2450 4666 
L 2450 531 
L 3481 531 
L 3481 0 
L 794 0 
L 794 531 
z
" transform="scale(0.015625)"/>
        <path id="DejaVuSans-35" d="M 691 4666 
L 3169 4666 
L 3169 4134 
L 1269 4134 
L 1269 2991 
Q 1406 3038 1543 3061 
Q 1681 3084 1819 3084 
Q 2600 3084 3056 2656 
Q 3513 2228 3513 1497 
Q 3513 744 3044 326 
Q 2575 -91 1722 -91 
Q 1428 -91 1123 -41 
Q 819 9 494 109 
L 494 744 
Q 775 591 1075 516 
Q 1375 441 1709 441 
Q 2250 441 2565 725 
Q 2881 1009 2881 1497 
Q 2881 1984 2565 2268 
Q 2250 2553 1709 2553 
Q 1456 2553 1204 2497 
Q 953 2441 691 2322 
L 691 4666 
z
" transform="scale(0.015625)"/>
       </defs>
       <use xlink:href="#DejaVuSans-2212"/>
       <use xlink:href="#DejaVuSans-31" x="83.789062"/>
       <use xlink:href="#DejaVuSans-2e" x="147.412109"/>
       <use xlink:href="#DejaVuSans-35" x="179.199219"/>
      </g>
     </g>
    </g>
    <g id="xtick_3">
     <g id="line2d_3">
      <g>
       <use xlink:href="#mf32f334e0b" x="122.200254" y="201.24" style="stroke: #000000; stroke-width: 0.8"/>
      </g>
     </g>
     <g id="text_3">
      <!-- −1.0 -->
      <g transform="translate(110.058848 215.838437) scale(0.1 -0.1)">
       <use xlink:href="#DejaVuSans-2212"/>
       <use xlink:href="#DejaVuSans-31" x="83.789062"/>
       <use xlink:href="#DejaVuSans-2e" x="147.412109"/>
       <use xlink:href="#DejaVuSans-30" x="179.199219"/>
      </g>
     </g>
    </g>
    <g id="xtick_4">
     <g id="line2d_4">
      <g>
       <use xlink:href="#mf32f334e0b" x="157.083975" y="201.24" style="stroke: #000000; stroke-width: 0.8"/>
      </g>
     </g>
     <g id="text_4">
      <!-- −0.5 -->
      <g transform="translate(144.942569 215.838437) scale(0.1 -0.1)">
       <use xlink:href="#DejaVuSans-2212"/>
       <use xlink:href="#DejaVuSans-30" x="83.789062"/>
       <use xlink:href="#DejaVuSans-2e" x="147.412109"/>
       <use xlink:href="#DejaVuSans-35" x="179.199219"/>
      </g>
     </g>
    </g>
    <g id="xtick_5">
     <g id="line2d_5">
      <g>
       <use xlink:href="#mf32f334e0b" x="191.967696" y="201.24" style="stroke: #000000; stroke-width: 0.8"/>
      </g>
     </g>
     <g id="text_5">
      <!-- 0.0 -->
      <g transform="translate(184.016134 215.838437) scale(0.1 -0.1)">
       <use xlink:href="#DejaVuSans-30"/>
       <use xlink:href="#DejaVuSans-2e" x="63.623047"/>
       <use xlink:href="#DejaVuSans-30" x="95.410156"/>
      </g>
     </g>
    </g>
    <g id="xtick_6">
     <g id="line2d_6">
      <g>
       <use xlink:href="#mf32f334e0b" x="226.851417" y="201.24" style="stroke: #000000; stroke-width: 0.8"/>
      </g>
     </g>
     <g id="text_6">
      <!-- 0.5 -->
      <g transform="translate(218.899855 215.838437) scale(0.1 -0.1)">
       <use xlink:href="#DejaVuSans-30"/>
       <use xlink:href="#DejaVuSans-2e" x="63.623047"/>
       <use xlink:href="#DejaVuSans-35" x="95.410156"/>
      </g>
     </g>
    </g>
    <g id="xtick_7">
     <g id="line2d_7">
      <g>
       <use xlink:href="#mf32f334e0b" x="261.735138" y="201.24" style="stroke: #000000; stroke-width: 0.8"/>
      </g>
     </g>
     <g id="text_7">
      <!-- 1.0 -->
      <g transform="translate(253.783576 215.838437) scale(0.1 -0.1)">
       <use xlink:href="#DejaVuSans-31"/>
       <use xlink:href="#DejaVuSans-2e" x="63.623047"/>
       <use xlink:href="#DejaVuSans-30" x="95.410156"/>
      </g>
     </g>
    </g>
    <g id="xtick_8">
     <g id="line2d_8">
      <g>
       <use xlink:href="#mf32f334e0b" x="296.618859" y="201.24" style="stroke: #000000; stroke-width: 0.8"/>
      </g>
     </g>
     <g id="text_8">
      <!-- 1.5 -->
      <g transform="translate(288.667297 215.838437) scale(0.1 -0.1)">
       <use xlink:href="#DejaVuSans-31"/>
       <use xlink:href="#DejaVuSans-2e" x="63.623047"/>
       <use xlink:href="#DejaVuSans-35" x="95.410156"/>
      </g>
     </g>
    </g>
    <g id="xtick_9">
     <g id="line2d_9">
      <g>
       <use xlink:href="#mf32f334e0b" x="331.50258" y="201.24" style="stroke: #000000; stroke-width: 0.8"/>
      </g>
     </g>
     <g id="text_9">
      <!-- 2.0 -->
      <g transform="translate(323.551017 215.838437) scale(0.1 -0.1)">
       <use xlink:href="#DejaVuSans-32"/>
       <use xlink:href="#DejaVuSans-2e" x="63.623047"/>
       <use xlink:href="#DejaVuSans-30" x="95.410156"/>
      </g>
     </g>
    </g>
   </g>
   <g id="matplotlib.axis_2">
    <g id="ytick_1">
     <g id="line2d_10">
      <defs>
       <path id="m41fc529b0d" d="M 0 0 
L -3.5 0 
" style="stroke: #000000; stroke-width: 0.8"/>
      </defs>
      <g>
       <use xlink:href="#m41fc529b0d" x="38.482813" y="189.901389" style="stroke: #000000; stroke-width: 0.8"/>
      </g>
     </g>
     <g id="text_10">
      <!-- −0.2 -->
      <g transform="translate(7.2 193.700608) scale(0.1 -0.1)">
       <use xlink:href="#DejaVuSans-2212"/>
       <use xlink:href="#DejaVuSans-30" x="83.789062"/>
       <use xlink:href="#DejaVuSans-2e" x="147.412109"/>
       <use xlink:href="#DejaVuSans-32" x="179.199219"/>
      </g>
     </g>
    </g>
    <g id="ytick_2">
     <g id="line2d_11">
      <g>
       <use xlink:href="#m41fc529b0d" x="38.482813" y="160.668189" style="stroke: #000000; stroke-width: 0.8"/>
      </g>
     </g>
     <g id="text_11">
      <!-- 0.0 -->
      <g transform="translate(15.579688 164.467408) scale(0.1 -0.1)">
       <use xlink:href="#DejaVuSans-30"/>
       <use xlink:href="#DejaVuSans-2e" x="63.623047"/>
       <use xlink:href="#DejaVuSans-30" x="95.410156"/>
      </g>
     </g>
    </g>
    <g id="ytick_3">
     <g id="line2d_12">
      <g>
       <use xlink:href="#m41fc529b0d" x="38.482813" y="131.434989" style="stroke: #000000; stroke-width: 0.8"/>
      </g>
     </g>
     <g id="text_12">
      <!-- 0.2 -->
      <g transform="translate(15.579688 135.234208) scale(0.1 -0.1)">
       <use xlink:href="#DejaVuSans-30"/>
       <use xlink:href="#DejaVuSans-2e" x="63.623047"/>
       <use xlink:href="#DejaVuSans-32" x="95.410156"/>
      </g>
     </g>
    </g>
    <g id="ytick_4">
     <g id="line2d_13">
      <g>
       <use xlink:href="#m41fc529b0d" x="38.482813" y="102.201789" style="stroke: #000000; stroke-width: 0.8"/>
      </g>
     </g>
     <g id="text_13">
      <!-- 0.4 -->
      <g transform="translate(15.579688 106.001007) scale(0.1 -0.1)">
       <defs>
        <path id="DejaVuSans-34" d="M 2419 4116 
L 825 1625 
L 2419 1625 
L 2419 4116 
z
M 2253 4666 
L 3047 4666 
L 3047 1625 
L 3713 1625 
L 3713 1100 
L 3047 1100 
L 3047 0 
L 2419 0 
L 2419 1100 
L 313 1100 
L 313 1709 
L 2253 4666 
z
" transform="scale(0.015625)"/>
       </defs>
       <use xlink:href="#DejaVuSans-30"/>
       <use xlink:href="#DejaVuSans-2e" x="63.623047"/>
       <use xlink:href="#DejaVuSans-34" x="95.410156"/>
      </g>
     </g>
    </g>
    <g id="ytick_5">
     <g id="line2d_14">
      <g>
       <use xlink:href="#m41fc529b0d" x="38.482813" y="72.968589" style="stroke: #000000; stroke-width: 0.8"/>
      </g>
     </g>
     <g id="text_14">
      <!-- 0.6 -->
      <g transform="translate(15.579688 76.767807) scale(0.1 -0.1)">
       <defs>
        <path id="DejaVuSans-36" d="M 2113 2584 
Q 1688 2584 1439 2293 
Q 1191 2003 1191 1497 
Q 1191 994 1439 701 
Q 1688 409 2113 409 
Q 2538 409 2786 701 
Q 3034 994 3034 1497 
Q 3034 2003 2786 2293 
Q 2538 2584 2113 2584 
z
M 3366 4563 
L 3366 3988 
Q 3128 4100 2886 4159 
Q 2644 4219 2406 4219 
Q 1781 4219 1451 3797 
Q 1122 3375 1075 2522 
Q 1259 2794 1537 2939 
Q 1816 3084 2150 3084 
Q 2853 3084 3261 2657 
Q 3669 2231 3669 1497 
Q 3669 778 3244 343 
Q 2819 -91 2113 -91 
Q 1303 -91 875 529 
Q 447 1150 447 2328 
Q 447 3434 972 4092 
Q 1497 4750 2381 4750 
Q 2619 4750 2861 4703 
Q 3103 4656 3366 4563 
z
" transform="scale(0.015625)"/>
       </defs>
       <use xlink:href="#DejaVuSans-30"/>
       <use xlink:href="#DejaVuSans-2e" x="63.623047"/>
       <use xlink:href="#DejaVuSans-36" x="95.410156"/>
      </g>
     </g>
    </g>
    <g id="ytick_6">
     <g id="line2d_15">
      <g>
       <use xlink:href="#m41fc529b0d" x="38.482813" y="43.735389" style="stroke: #000000; stroke-width: 0.8"/>
      </g>
     </g>
     <g id="text_15">
      <!-- 0.8 -->
      <g transform="translate(15.579688 47.534607) scale(0.1 -0.1)">
       <defs>
        <path id="DejaVuSans-38" d="M 2034 2216 
Q 1584 2216 1326 1975 
Q 1069 1734 1069 1313 
Q 1069 891 1326 650 
Q 1584 409 2034 409 
Q 2484 409 2743 651 
Q 3003 894 3003 1313 
Q 3003 1734 2745 1975 
Q 2488 2216 2034 2216 
z
M 1403 2484 
Q 997 2584 770 2862 
Q 544 3141 544 3541 
Q 544 4100 942 4425 
Q 1341 4750 2034 4750 
Q 2731 4750 3128 4425 
Q 3525 4100 3525 3541 
Q 3525 3141 3298 2862 
Q 3072 2584 2669 2484 
Q 3125 2378 3379 2068 
Q 3634 1759 3634 1313 
Q 3634 634 3220 271 
Q 2806 -91 2034 -91 
Q 1263 -91 848 271 
Q 434 634 434 1313 
Q 434 1759 690 2068 
Q 947 2378 1403 2484 
z
M 1172 3481 
Q 1172 3119 1398 2916 
Q 1625 2713 2034 2713 
Q 2441 2713 2670 2916 
Q 2900 3119 2900 3481 
Q 2900 3844 2670 4047 
Q 2441 4250 2034 4250 
Q 1625 4250 1398 4047 
Q 1172 3844 1172 3481 
z
" transform="scale(0.015625)"/>
       </defs>
       <use xlink:href="#DejaVuSans-30"/>
       <use xlink:href="#DejaVuSans-2e" x="63.623047"/>
       <use xlink:href="#DejaVuSans-38" x="95.410156"/>
      </g>
     </g>
    </g>
    <g id="ytick_7">
     <g id="line2d_16">
      <g>
       <use xlink:href="#m41fc529b0d" x="38.482813" y="14.502188" style="stroke: #000000; stroke-width: 0.8"/>
      </g>
     </g>
     <g id="text_16">
      <!-- 1.0 -->
      <g transform="translate(15.579688 18.301407) scale(0.1 -0.1)">
       <use xlink:href="#DejaVuSans-31"/>
       <use xlink:href="#DejaVuSans-2e" x="63.623047"/>
       <use xlink:href="#DejaVuSans-30" x="95.410156"/>
      </g>
     </g>
    </g>
   </g>
   <g id="line2d_17">
    <path d="M 52.432813 16.02 
L 63.456068 16.609119 
L 72.176999 17.289048 
L 79.363045 18.065719 
L 85.363045 18.930288 
L 90.525836 19.892052 
L 95.060719 20.959482 
L 99.037464 22.119073 
L 102.595603 23.382556 
L 105.804906 24.751346 
L 108.735138 26.235137 
L 111.456068 27.85644 
L 114.037464 29.656037 
L 116.409557 31.578065 
L 118.642115 33.66549 
L 120.804906 35.990969 
L 122.897929 38.574706 
L 124.921185 41.436559 
L 126.874673 44.595368 
L 128.758394 48.068121 
L 130.642115 52.024987 
L 132.456068 56.361717 
L 134.270022 61.290557 
L 136.083975 66.89491 
L 137.828161 73.005559 
L 139.572347 79.910743 
L 141.386301 88.027616 
L 143.200254 97.185925 
L 145.083975 107.868356 
L 147.107231 120.687878 
L 149.409557 136.808426 
L 155.479324 180.33662 
L 156.595603 186.243287 
L 157.432813 189.582383 
L 158.060719 191.312665 
L 158.549092 192.125535 
L 158.897929 192.391429 
L 159.246766 192.376368 
L 159.595603 192.065224 
L 160.014208 191.282405 
L 160.50258 189.781967 
L 161.060719 187.272918 
L 161.758394 182.952098 
L 162.595603 176.163381 
L 163.78165 164.382641 
L 165.386301 148.587905 
L 166.014208 144.296973 
L 166.432813 142.550048 
L 166.711882 141.988118 
L 166.921185 141.914908 
L 167.130487 142.15599 
L 167.409557 142.981524 
L 167.758394 144.8286 
L 168.246766 148.854183 
L 168.94444 156.853006 
L 170.130487 170.764714 
L 170.549092 173.433786 
L 170.828161 174.015876 
L 170.967696 173.89939 
L 171.176999 173.194599 
L 171.456068 171.279613 
L 171.874673 166.587111 
L 173.130487 150.937664 
L 173.339789 150.310861 
L 173.409557 150.326154 
L 173.549092 150.706634 
L 173.758394 152.141314 
L 174.107231 156.50872 
L 174.94444 168.378085 
L 175.153743 169.141646 
L 175.22351 169.058818 
L 175.363045 168.371164 
L 175.642115 165.099149 
L 176.409557 153.748998 
L 176.549092 153.539797 
L 176.688626 154.295868 
L 176.967696 158.301746 
L 177.456068 166.367751 
L 177.595603 166.870862 
L 177.735138 166.098948 
L 178.014208 161.442002 
L 178.363045 155.559961 
L 178.432813 155.215838 
L 178.50258 155.279085 
L 178.642115 156.617418 
L 179.200254 165.56256 
L 179.339789 164.394734 
L 179.828161 156.246908 
L 179.967696 157.70342 
L 180.386301 164.643578 
L 180.525836 162.61768 
L 180.804906 157.006535 
L 180.874673 157.122534 
L 181.083975 161.550581 
L 181.22351 164.030407 
L 181.293278 163.929695 
L 181.50258 159.201837 
L 181.642115 157.482778 
L 181.78165 160.016341 
L 181.990952 163.593046 
L 182.270022 157.852951 
L 182.339789 158.492762 
L 182.549092 163.31649 
L 182.618859 162.652004 
L 182.828161 158.18883 
L 183.037464 163.002128 
L 183.107231 162.410619 
L 183.246766 158.566993 
L 183.316533 158.857195 
L 183.456068 162.705792 
L 183.525836 162.223614 
L 183.665371 158.603308 
L 183.874673 162.404621 
L 184.014208 158.769086 
L 184.153743 162.36316 
L 184.22351 161.561722 
L 184.293278 159.216102 
L 184.363045 159.610321 
L 184.432813 162.015119 
L 184.50258 161.641507 
L 184.572347 159.255977 
L 184.642115 160.035845 
L 184.711882 162.210545 
L 184.851417 159.214637 
L 184.921185 161.558909 
L 184.990952 161.408323 
L 185.060719 159.239261 
L 185.200254 161.366911 
L 185.270022 159.331135 
L 185.339789 161.65713 
L 185.409557 160.570068 
L 185.479324 159.935065 
L 185.549092 161.835453 
L 185.618859 159.480251 
L 185.688626 161.620562 
L 185.758394 160.030814 
L 185.828161 161.03169 
L 185.897929 160.479973 
L 185.967696 160.79732 
L 186.037464 160.480966 
L 186.107231 161.023469 
L 186.176999 160.062267 
L 186.246766 161.528494 
L 186.316533 159.710324 
L 186.386301 161.358264 
L 186.456068 160.676861 
L 186.525836 159.918581 
L 186.595603 161.389597 
L 186.665371 160.951804 
L 186.735138 159.877525 
L 186.804906 160.354527 
L 186.94444 161.390551 
L 187.22351 160.340064 
L 187.363045 160.814673 
L 187.432813 161.208996 
L 187.50258 161.138501 
L 187.572347 160.328651 
L 187.642115 160.347926 
L 187.711882 161.206843 
L 187.78165 160.158765 
L 187.851417 161.168593 
L 187.921185 160.212416 
L 187.990952 160.710431 
L 188.060719 161.126557 
L 188.130487 160.956829 
L 188.200254 160.873251 
L 188.270022 161.013371 
L 188.339789 160.974178 
L 188.409557 160.314792 
L 188.479324 160.979128 
L 188.549092 160.326655 
L 188.618859 160.510295 
L 188.688626 160.571481 
L 188.758394 160.36635 
L 188.828161 160.834609 
L 188.897929 160.394947 
L 188.967696 160.543641 
L 189.037464 160.413814 
L 189.107231 160.889667 
L 189.176999 160.627025 
L 189.246766 160.838017 
L 189.386301 160.468247 
L 189.456068 160.846526 
L 189.525836 160.75207 
L 189.595603 160.819827 
L 189.665371 160.540725 
L 189.735138 160.600028 
L 189.874673 160.779777 
L 189.94444 160.545327 
L 190.014208 160.665486 
L 190.083975 160.571644 
L 190.153743 160.629693 
L 190.22351 160.741384 
L 190.293278 160.59004 
L 190.432813 160.729634 
L 190.990952 160.66549 
L 191.270022 160.672656 
L 192.94444 160.66549 
L 193.22351 160.621729 
L 193.432813 160.707516 
L 193.572347 160.727765 
L 193.642115 160.59004 
L 193.711882 160.741384 
L 193.78165 160.629693 
L 193.851417 160.571644 
L 193.921185 160.665486 
L 193.990952 160.545327 
L 194.130487 160.76034 
L 194.270022 160.540725 
L 194.339789 160.819827 
L 194.409557 160.75207 
L 194.479324 160.846526 
L 194.618859 160.461349 
L 194.688626 160.838017 
L 194.758394 160.627025 
L 194.828161 160.889667 
L 194.897929 160.413814 
L 194.967696 160.543641 
L 195.037464 160.394947 
L 195.107231 160.834609 
L 195.176999 160.36635 
L 195.246766 160.571481 
L 195.386301 160.326655 
L 195.456068 160.979128 
L 195.525836 160.314792 
L 195.665371 161.013371 
L 195.735138 160.873251 
L 195.804906 160.956829 
L 195.874673 161.126557 
L 196.014208 160.212416 
L 196.083975 161.168593 
L 196.153743 160.158765 
L 196.22351 161.206843 
L 196.363045 160.328651 
L 196.50258 161.208996 
L 196.711882 160.340064 
L 196.78165 160.367505 
L 196.921185 160.990671 
L 196.990952 161.390551 
L 197.060719 161.24981 
L 197.200254 159.877525 
L 197.339789 161.389597 
L 197.409557 159.918581 
L 197.479324 160.676861 
L 197.549092 161.358264 
L 197.618859 159.710324 
L 197.688626 161.528494 
L 197.758394 160.062267 
L 197.828161 161.023469 
L 197.897929 160.480966 
L 197.967696 160.79732 
L 198.037464 160.479973 
L 198.107231 161.03169 
L 198.176999 160.030814 
L 198.246766 161.620562 
L 198.316533 159.480251 
L 198.386301 161.835453 
L 198.456068 159.935065 
L 198.525836 160.570068 
L 198.595603 161.65713 
L 198.665371 159.331135 
L 198.735138 161.366911 
L 198.804906 161.2797 
L 198.874673 159.239261 
L 199.014208 161.558909 
L 199.083975 159.214637 
L 199.22351 162.210545 
L 199.363045 159.255977 
L 199.50258 162.015119 
L 199.642115 159.216102 
L 199.78165 162.36316 
L 199.921185 158.769086 
L 200.060719 162.404621 
L 200.130487 162.096148 
L 200.270022 158.603308 
L 200.479324 162.705792 
L 200.688626 158.566993 
L 200.897929 163.002128 
L 201.107231 158.18883 
L 201.176999 158.765906 
L 201.386301 163.31649 
L 201.525836 160.318724 
L 201.665371 157.852951 
L 201.804906 160.569992 
L 201.94444 163.593046 
L 202.014208 163.371296 
L 202.293278 157.482778 
L 202.363045 157.836228 
L 202.711882 164.030407 
L 202.851417 161.550581 
L 203.130487 157.006535 
L 203.270022 159.15732 
L 203.549092 164.643578 
L 203.618859 164.594871 
L 203.758394 162.503766 
L 204.107231 156.246908 
L 204.176999 156.438727 
L 204.386301 159.995613 
L 204.735138 165.56256 
L 204.804906 165.38351 
L 204.94444 163.650382 
L 205.432813 155.279085 
L 205.50258 155.215838 
L 205.642115 156.276432 
L 205.990952 162.863386 
L 206.270022 166.64424 
L 206.339789 166.870862 
L 206.409557 166.774537 
L 206.549092 165.677802 
L 206.897929 159.633604 
L 207.246766 154.295868 
L 207.456068 153.525134 
L 207.595603 154.198882 
L 207.874673 157.799571 
L 208.572347 168.371164 
L 208.78165 169.141646 
L 208.921185 168.79444 
L 209.130487 167.114851 
L 209.549092 161.030808 
L 210.176999 152.141314 
L 210.456068 150.457845 
L 210.595603 150.310861 
L 210.735138 150.620332 
L 210.94444 151.871547 
L 211.293278 155.623906 
L 212.688626 172.818374 
L 212.967696 173.89939 
L 213.107231 174.015876 
L 213.246766 173.856673 
L 213.456068 173.128446 
L 213.804906 170.764714 
L 214.363045 164.831807 
L 215.967696 146.358824 
L 216.456068 143.278831 
L 216.804906 142.15599 
L 217.083975 141.904989 
L 217.293278 142.080078 
L 217.572347 142.769079 
L 217.921185 144.296973 
L 218.409557 147.489027 
L 219.176999 154.280343 
L 222.176999 182.952098 
L 222.94444 187.633112 
L 223.572347 190.276343 
L 224.130487 191.730779 
L 224.549092 192.288233 
L 224.897929 192.42 
L 225.176999 192.317891 
L 225.525836 191.94415 
L 225.94444 191.156966 
L 226.50258 189.582383 
L 227.200254 186.872795 
L 228.107231 182.333376 
L 229.293278 175.098729 
L 230.967696 163.343247 
L 237.316533 117.469097 
L 239.409557 104.576306 
L 241.363045 93.893087 
L 243.246766 84.787028 
L 245.130487 76.768995 
L 247.014208 69.734357 
L 248.828161 63.787886 
L 250.711882 58.370098 
L 252.595603 53.627845 
L 254.479324 49.473459 
L 256.432813 45.703323 
L 258.386301 42.406635 
L 260.409557 39.421909 
L 262.50258 36.729265 
L 264.665371 34.307709 
L 266.897929 32.13587 
L 269.270022 30.137882 
L 271.78165 28.315708 
L 274.432813 26.666678 
L 277.293278 25.150432 
L 280.363045 23.773865 
L 283.78165 22.490019 
L 287.549092 21.320026 
L 291.735138 20.258663 
L 296.479324 19.292178 
L 301.851417 18.42903 
L 308.130487 17.651475 
L 315.525836 16.966032 
L 324.456068 16.368247 
L 331.432813 16.02303 
L 331.432813 16.02303 
" clip-path="url(#p6c83f57e95)" style="fill: none; stroke: #1f77b4; stroke-width: 1.5; stroke-linecap: square"/>
   </g>
   <g id="patch_3">
    <path d="M 38.482813 201.24 
L 38.482813 7.2 
" style="fill: none; stroke: #000000; stroke-width: 0.8; stroke-linejoin: miter; stroke-linecap: square"/>
   </g>
   <g id="patch_4">
    <path d="M 345.382813 201.24 
L 345.382813 7.2 
" style="fill: none; stroke: #000000; stroke-width: 0.8; stroke-linejoin: miter; stroke-linecap: square"/>
   </g>
   <g id="patch_5">
    <path d="M 38.482812 201.24 
L 345.382812 201.24 
" style="fill: none; stroke: #000000; stroke-width: 0.8; stroke-linejoin: miter; stroke-linecap: square"/>
   </g>
   <g id="patch_6">
    <path d="M 38.482812 7.2 
L 345.382812 7.2 
" style="fill: none; stroke: #000000; stroke-width: 0.8; stroke-linejoin: miter; stroke-linecap: square"/>
   </g>
  </g>
 </g>
 <defs>
  <clipPath id="p6c83f57e95">
   <rect x="38.482813" y="7.2" width="306.9" height="194.04"/>
  </clipPath>
 </defs>
</svg>
