<?xml version="1.0" encoding="utf-8" standalone="no"?>
<!DOCTYPE svg PUBLIC "-//W3C//DTD SVG 1.1//EN"
  "http://www.w3.org/Graphics/SVG/1.1/DTD/svg11.dtd">
<svg xmlns:xlink="http://www.w3.org/1999/xlink" width="347.3875pt" height="225.118125pt" viewBox="0 0 347.3875 225.118125" xmlns="http://www.w3.org/2000/svg" version="1.1">
 <metadata>
  <rdf:RDF xmlns:dc="http://purl.org/dc/elements/1.1/" xmlns:cc="http://creativecommons.org/ns#" xmlns:rdf="http://www.w3.org/1999/02/22-rdf-syntax-ns#">
   <cc:Work>
    <dc:type rdf:resource="http://purl.org/dc/dcmitype/StillImage"/>
    <dc:date>2024-03-01T16:04:02.949558</dc:date>
    <dc:format>image/svg+xml</dc:format>
    <dc:creator>
     <cc:Agent>
      <dc:title>Matplotlib v3.8.3, https://matplotlib.org/</dc:title>
     </cc:Agent>
    </dc:creator>
   </cc:Work>
  </rdf:RDF>
 </metadata>
 <defs>
  <style type="text/css">*{stroke-linejoin: round; stroke-linecap: butt}</style>
 </defs>
 <g id="figure_1">
  <g id="patch_1">
   <path d="M 0 225.118125 
L 347.3875 225.118125 
L 347.3875 0 
L 0 0 
z
" style="fill: #ffffff"/>
  </g>
  <g id="axes_1">
   <g id="patch_2">
    <path d="M 33.2875 201.24 
L 340.1875 201.24 
L 340.1875 7.2 
L 33.2875 7.2 
z
" style="fill: #ffffff"/>
   </g>
   <g id="PathCollection_1">
    <defs>
     <path id="mc123f0c85f" d="M 0 3 
C 0.795609 3 1.55874 2.683901 2.12132 2.12132 
C 2.683901 1.55874 3 0.795609 3 0 
C 3 -0.795609 2.683901 -1.55874 2.12132 -2.12132 
C 1.55874 -2.683901 0.795609 -3 0 -3 
C -0.795609 -3 -1.55874 -2.683901 -2.12132 -2.12132 
C -2.683901 -1.55874 -3 -0.795609 -3 0 
C -3 0.795609 -2.683901 1.55874 -2.12132 2.12132 
C -1.55874 2.683901 -0.795609 3 0 3 
z
" style="stroke: #000000"/>
    </defs>
    <g clip-path="url(#p7164396edc)">
     <use xlink:href="#mc123f0c85f" x="170.985521" y="122.370001" style="fill: #ff0000; stroke: #000000"/>
     <use xlink:href="#mc123f0c85f" x="218.637895" y="91.639587" style="fill: #ff0000; stroke: #000000"/>
     <use xlink:href="#mc123f0c85f" x="73.563418" y="178.699674" style="fill: #ff0000; stroke: #000000"/>
     <use xlink:href="#mc123f0c85f" x="48.977063" y="181.020986" style="fill: #ff0000; stroke: #000000"/>
     <use xlink:href="#mc123f0c85f" x="132.4729" y="135.136903" style="fill: #ff0000; stroke: #000000"/>
     <use xlink:href="#mc123f0c85f" x="177.72831" y="103.756268" style="fill: #ff0000; stroke: #000000"/>
     <use xlink:href="#mc123f0c85f" x="61.506786" y="188.974878" style="fill: #ff0000; stroke: #000000"/>
     <use xlink:href="#mc123f0c85f" x="236.808602" y="79.611586" style="fill: #ff0000; stroke: #000000"/>
     <use xlink:href="#mc123f0c85f" x="253.979459" y="60.716502" style="fill: #ff0000; stroke: #000000"/>
     <use xlink:href="#mc123f0c85f" x="62.098442" y="172.072984" style="fill: #ff0000; stroke: #000000"/>
     <use xlink:href="#mc123f0c85f" x="244.185318" y="70.168852" style="fill: #ff0000; stroke: #000000"/>
     <use xlink:href="#mc123f0c85f" x="193.782398" y="113.549002" style="fill: #ff0000; stroke: #000000"/>
     <use xlink:href="#mc123f0c85f" x="201.722055" y="108.796577" style="fill: #ff0000; stroke: #000000"/>
     <use xlink:href="#mc123f0c85f" x="276.963784" y="44.835586" style="fill: #ff0000; stroke: #000000"/>
     <use xlink:href="#mc123f0c85f" x="73.510369" y="179.232644" style="fill: #ff0000; stroke: #000000"/>
     <use xlink:href="#mc123f0c85f" x="266.295906" y="73.441805" style="fill: #ff0000; stroke: #000000"/>
     <use xlink:href="#mc123f0c85f" x="110.71027" y="159.37121" style="fill: #ff0000; stroke: #000000"/>
     <use xlink:href="#mc123f0c85f" x="279.636557" y="53.80288" style="fill: #ff0000; stroke: #000000"/>
     <use xlink:href="#mc123f0c85f" x="249.554353" y="72.650938" style="fill: #ff0000; stroke: #000000"/>
     <use xlink:href="#mc123f0c85f" x="182.782128" y="117.615297" style="fill: #ff0000; stroke: #000000"/>
     <use xlink:href="#mc123f0c85f" x="137.648834" y="126.64448" style="fill: #ff0000; stroke: #000000"/>
     <use xlink:href="#mc123f0c85f" x="230.973046" y="82.284167" style="fill: #ff0000; stroke: #000000"/>
     <use xlink:href="#mc123f0c85f" x="294.381672" y="55.389762" style="fill: #ff0000; stroke: #000000"/>
     <use xlink:href="#mc123f0c85f" x="307.444836" y="43.31879" style="fill: #ff0000; stroke: #000000"/>
     <use xlink:href="#mc123f0c85f" x="89.406229" y="169.123892" style="fill: #ff0000; stroke: #000000"/>
     <use xlink:href="#mc123f0c85f" x="102.031453" y="138.94909" style="fill: #ff0000; stroke: #000000"/>
     <use xlink:href="#mc123f0c85f" x="120.222693" y="139.108769" style="fill: #ff0000; stroke: #000000"/>
     <use xlink:href="#mc123f0c85f" x="197.848309" y="105.265526" style="fill: #ff0000; stroke: #000000"/>
     <use xlink:href="#mc123f0c85f" x="105.010983" y="142.971788" style="fill: #ff0000; stroke: #000000"/>
     <use xlink:href="#mc123f0c85f" x="228.436968" y="86.37522" style="fill: #ff0000; stroke: #000000"/>
     <use xlink:href="#mc123f0c85f" x="246.884358" y="76.332183" style="fill: #ff0000; stroke: #000000"/>
     <use xlink:href="#mc123f0c85f" x="121.833782" y="134.550466" style="fill: #ff0000; stroke: #000000"/>
     <use xlink:href="#mc123f0c85f" x="312.74569" y="37.350201" style="fill: #ff0000; stroke: #000000"/>
     <use xlink:href="#mc123f0c85f" x="195.571599" y="109.550536" style="fill: #ff0000; stroke: #000000"/>
     <use xlink:href="#mc123f0c85f" x="114.179078" y="144.074091" style="fill: #ff0000; stroke: #000000"/>
     <use xlink:href="#mc123f0c85f" x="194.722455" y="110.241533" style="fill: #ff0000; stroke: #000000"/>
     <use xlink:href="#mc123f0c85f" x="257.415559" y="59.455362" style="fill: #ff0000; stroke: #000000"/>
     <use xlink:href="#mc123f0c85f" x="309.909813" y="39.290501" style="fill: #ff0000; stroke: #000000"/>
     <use xlink:href="#mc123f0c85f" x="48.929586" y="192.42" style="fill: #ff0000; stroke: #000000"/>
     <use xlink:href="#mc123f0c85f" x="148.498204" y="106.731744" style="fill: #ff0000; stroke: #000000"/>
     <use xlink:href="#mc123f0c85f" x="47.524654" y="191.79988" style="fill: #ff0000; stroke: #000000"/>
     <use xlink:href="#mc123f0c85f" x="273.087977" y="66.467851" style="fill: #ff0000; stroke: #000000"/>
     <use xlink:href="#mc123f0c85f" x="241.658386" y="81.529504" style="fill: #ff0000; stroke: #000000"/>
     <use xlink:href="#mc123f0c85f" x="70.305645" y="171.096845" style="fill: #ff0000; stroke: #000000"/>
     <use xlink:href="#mc123f0c85f" x="252.59725" y="81.020381" style="fill: #ff0000; stroke: #000000"/>
     <use xlink:href="#mc123f0c85f" x="52.946885" y="185.657437" style="fill: #ff0000; stroke: #000000"/>
     <use xlink:href="#mc123f0c85f" x="59.786251" y="170.419637" style="fill: #ff0000; stroke: #000000"/>
     <use xlink:href="#mc123f0c85f" x="319.494762" y="33.118946" style="fill: #ff0000; stroke: #000000"/>
     <use xlink:href="#mc123f0c85f" x="91.305501" y="158.185536" style="fill: #ff0000; stroke: #000000"/>
     <use xlink:href="#mc123f0c85f" x="133.21961" y="137.501769" style="fill: #ff0000; stroke: #000000"/>
     <use xlink:href="#mc123f0c85f" x="102.555107" y="162.085515" style="fill: #ff0000; stroke: #000000"/>
     <use xlink:href="#mc123f0c85f" x="71.270146" y="179.91856" style="fill: #ff0000; stroke: #000000"/>
     <use xlink:href="#mc123f0c85f" x="195.052035" y="98.676022" style="fill: #ff0000; stroke: #000000"/>
     <use xlink:href="#mc123f0c85f" x="199.675263" y="107.009555" style="fill: #ff0000; stroke: #000000"/>
     <use xlink:href="#mc123f0c85f" x="214.926895" y="98.598813" style="fill: #ff0000; stroke: #000000"/>
     <use xlink:href="#mc123f0c85f" x="50.311743" y="188.279344" style="fill: #ff0000; stroke: #000000"/>
     <use xlink:href="#mc123f0c85f" x="280.065088" y="50.326546" style="fill: #ff0000; stroke: #000000"/>
     <use xlink:href="#mc123f0c85f" x="323.625007" y="27.944471" style="fill: #ff0000; stroke: #000000"/>
     <use xlink:href="#mc123f0c85f" x="194.986914" y="113.639294" style="fill: #ff0000; stroke: #000000"/>
     <use xlink:href="#mc123f0c85f" x="256.976147" y="63.687391" style="fill: #ff0000; stroke: #000000"/>
     <use xlink:href="#mc123f0c85f" x="108.298091" y="144.197388" style="fill: #ff0000; stroke: #000000"/>
     <use xlink:href="#mc123f0c85f" x="47.2375" y="180.526106" style="fill: #ff0000; stroke: #000000"/>
     <use xlink:href="#mc123f0c85f" x="102.869522" y="141.663779" style="fill: #ff0000; stroke: #000000"/>
     <use xlink:href="#mc123f0c85f" x="101.728202" y="147.727749" style="fill: #ff0000; stroke: #000000"/>
     <use xlink:href="#mc123f0c85f" x="59.872959" y="172.671996" style="fill: #ff0000; stroke: #000000"/>
     <use xlink:href="#mc123f0c85f" x="325.323501" y="30.405324" style="fill: #ff0000; stroke: #000000"/>
     <use xlink:href="#mc123f0c85f" x="59.950326" y="186.768329" style="fill: #ff0000; stroke: #000000"/>
     <use xlink:href="#mc123f0c85f" x="180.965333" y="110.193217" style="fill: #ff0000; stroke: #000000"/>
     <use xlink:href="#mc123f0c85f" x="290.972461" y="41.882125" style="fill: #ff0000; stroke: #000000"/>
     <use xlink:href="#mc123f0c85f" x="326.2375" y="16.02" style="fill: #ff0000; stroke: #000000"/>
     <use xlink:href="#mc123f0c85f" x="247.789143" y="85.680865" style="fill: #ff0000; stroke: #000000"/>
     <use xlink:href="#mc123f0c85f" x="49.136177" y="183.487946" style="fill: #ff0000; stroke: #000000"/>
     <use xlink:href="#mc123f0c85f" x="62.141618" y="165.203854" style="fill: #ff0000; stroke: #000000"/>
     <use xlink:href="#mc123f0c85f" x="216.770955" y="112.787786" style="fill: #ff0000; stroke: #000000"/>
     <use xlink:href="#mc123f0c85f" x="290.323977" y="44.930259" style="fill: #ff0000; stroke: #000000"/>
     <use xlink:href="#mc123f0c85f" x="260.530198" y="63.653403" style="fill: #ff0000; stroke: #000000"/>
     <use xlink:href="#mc123f0c85f" x="213.496247" y="89.705477" style="fill: #ff0000; stroke: #000000"/>
     <use xlink:href="#mc123f0c85f" x="294.346614" y="63.366765" style="fill: #ff0000; stroke: #000000"/>
     <use xlink:href="#mc123f0c85f" x="225.82683" y="90.167156" style="fill: #ff0000; stroke: #000000"/>
     <use xlink:href="#mc123f0c85f" x="169.044444" y="123.720385" style="fill: #ff0000; stroke: #000000"/>
     <use xlink:href="#mc123f0c85f" x="117.692128" y="158.249192" style="fill: #ff0000; stroke: #000000"/>
     <use xlink:href="#mc123f0c85f" x="186.07586" y="113.500983" style="fill: #ff0000; stroke: #000000"/>
     <use xlink:href="#mc123f0c85f" x="208.177473" y="94.276436" style="fill: #ff0000; stroke: #000000"/>
     <use xlink:href="#mc123f0c85f" x="137.018182" y="129.187998" style="fill: #ff0000; stroke: #000000"/>
     <use xlink:href="#mc123f0c85f" x="322.735812" y="20.891282" style="fill: #ff0000; stroke: #000000"/>
     <use xlink:href="#mc123f0c85f" x="265.341548" y="65.93656" style="fill: #ff0000; stroke: #000000"/>
     <use xlink:href="#mc123f0c85f" x="116.198948" y="148.649828" style="fill: #ff0000; stroke: #000000"/>
     <use xlink:href="#mc123f0c85f" x="144.550092" y="137.359504" style="fill: #ff0000; stroke: #000000"/>
     <use xlink:href="#mc123f0c85f" x="317.501337" y="36.071025" style="fill: #ff0000; stroke: #000000"/>
     <use xlink:href="#mc123f0c85f" x="313.030435" y="50.040308" style="fill: #ff0000; stroke: #000000"/>
     <use xlink:href="#mc123f0c85f" x="186.206367" y="116.249828" style="fill: #ff0000; stroke: #000000"/>
     <use xlink:href="#mc123f0c85f" x="118.604977" y="154.583823" style="fill: #ff0000; stroke: #000000"/>
     <use xlink:href="#mc123f0c85f" x="98.645691" y="167.762223" style="fill: #ff0000; stroke: #000000"/>
     <use xlink:href="#mc123f0c85f" x="304.861229" y="35.880818" style="fill: #ff0000; stroke: #000000"/>
     <use xlink:href="#mc123f0c85f" x="99.354231" y="165.784227" style="fill: #ff0000; stroke: #000000"/>
     <use xlink:href="#mc123f0c85f" x="308.331468" y="47.30961" style="fill: #ff0000; stroke: #000000"/>
     <use xlink:href="#mc123f0c85f" x="194.225575" y="94.698178" style="fill: #ff0000; stroke: #000000"/>
     <use xlink:href="#mc123f0c85f" x="192.019095" y="95.513794" style="fill: #ff0000; stroke: #000000"/>
     <use xlink:href="#mc123f0c85f" x="146.084913" y="119.475207" style="fill: #ff0000; stroke: #000000"/>
     <use xlink:href="#mc123f0c85f" x="61.689555" y="171.223877" style="fill: #ff0000; stroke: #000000"/>
    </g>
   </g>
   <g id="matplotlib.axis_1">
    <g id="xtick_1">
     <g id="line2d_1">
      <defs>
       <path id="mdbc637609b" d="M 0 0 
L 0 3.5 
" style="stroke: #000000; stroke-width: 0.8"/>
      </defs>
      <g>
       <use xlink:href="#mdbc637609b" x="47.046279" y="201.24" style="stroke: #000000; stroke-width: 0.8"/>
      </g>
     </g>
     <g id="text_1">
      <!-- 0 -->
      <g transform="translate(43.865029 215.838437) scale(0.1 -0.1)">
       <defs>
        <path id="DejaVuSans-30" d="M 2034 4250 
Q 1547 4250 1301 3770 
Q 1056 3291 1056 2328 
Q 1056 1369 1301 889 
Q 1547 409 2034 409 
Q 2525 409 2770 889 
Q 3016 1369 3016 2328 
Q 3016 3291 2770 3770 
Q 2525 4250 2034 4250 
z
M 2034 4750 
Q 2819 4750 3233 4129 
Q 3647 3509 3647 2328 
Q 3647 1150 3233 529 
Q 2819 -91 2034 -91 
Q 1250 -91 836 529 
Q 422 1150 422 2328 
Q 422 3509 836 4129 
Q 1250 4750 2034 4750 
z
" transform="scale(0.015625)"/>
       </defs>
       <use xlink:href="#DejaVuSans-30"/>
      </g>
     </g>
    </g>
    <g id="xtick_2">
     <g id="line2d_2">
      <g>
       <use xlink:href="#mdbc637609b" x="102.98601" y="201.24" style="stroke: #000000; stroke-width: 0.8"/>
      </g>
     </g>
     <g id="text_2">
      <!-- 20 -->
      <g transform="translate(96.62351 215.838437) scale(0.1 -0.1)">
       <defs>
        <path id="DejaVuSans-32" d="M 1228 531 
L 3431 531 
L 3431 0 
L 469 0 
L 469 531 
Q 828 903 1448 1529 
Q 2069 2156 2228 2338 
Q 2531 2678 2651 2914 
Q 2772 3150 2772 3378 
Q 2772 3750 2511 3984 
Q 2250 4219 1831 4219 
Q 1534 4219 1204 4116 
Q 875 4013 500 3803 
L 500 4441 
Q 881 4594 1212 4672 
Q 1544 4750 1819 4750 
Q 2544 4750 2975 4387 
Q 3406 4025 3406 3419 
Q 3406 3131 3298 2873 
Q 3191 2616 2906 2266 
Q 2828 2175 2409 1742 
Q 1991 1309 1228 531 
z
" transform="scale(0.015625)"/>
       </defs>
       <use xlink:href="#DejaVuSans-32"/>
       <use xlink:href="#DejaVuSans-30" x="63.623047"/>
      </g>
     </g>
    </g>
    <g id="xtick_3">
     <g id="line2d_3">
      <g>
       <use xlink:href="#mdbc637609b" x="158.925742" y="201.24" style="stroke: #000000; stroke-width: 0.8"/>
      </g>
     </g>
     <g id="text_3">
      <!-- 40 -->
      <g transform="translate(152.563242 215.838437) scale(0.1 -0.1)">
       <defs>
        <path id="DejaVuSans-34" d="M 2419 4116 
L 825 1625 
L 2419 1625 
L 2419 4116 
z
M 2253 4666 
L 3047 4666 
L 3047 1625 
L 3713 1625 
L 3713 1100 
L 3047 1100 
L 3047 0 
L 2419 0 
L 2419 1100 
L 313 1100 
L 313 1709 
L 2253 4666 
z
" transform="scale(0.015625)"/>
       </defs>
       <use xlink:href="#DejaVuSans-34"/>
       <use xlink:href="#DejaVuSans-30" x="63.623047"/>
      </g>
     </g>
    </g>
    <g id="xtick_4">
     <g id="line2d_4">
      <g>
       <use xlink:href="#mdbc637609b" x="214.865473" y="201.24" style="stroke: #000000; stroke-width: 0.8"/>
      </g>
     </g>
     <g id="text_4">
      <!-- 60 -->
      <g transform="translate(208.502973 215.838437) scale(0.1 -0.1)">
       <defs>
        <path id="DejaVuSans-36" d="M 2113 2584 
Q 1688 2584 1439 2293 
Q 1191 2003 1191 1497 
Q 1191 994 1439 701 
Q 1688 409 2113 409 
Q 2538 409 2786 701 
Q 3034 994 3034 1497 
Q 3034 2003 2786 2293 
Q 2538 2584 2113 2584 
z
M 3366 4563 
L 3366 3988 
Q 3128 4100 2886 4159 
Q 2644 4219 2406 4219 
Q 1781 4219 1451 3797 
Q 1122 3375 1075 2522 
Q 1259 2794 1537 2939 
Q 1816 3084 2150 3084 
Q 2853 3084 3261 2657 
Q 3669 2231 3669 1497 
Q 3669 778 3244 343 
Q 2819 -91 2113 -91 
Q 1303 -91 875 529 
Q 447 1150 447 2328 
Q 447 3434 972 4092 
Q 1497 4750 2381 4750 
Q 2619 4750 2861 4703 
Q 3103 4656 3366 4563 
z
" transform="scale(0.015625)"/>
       </defs>
       <use xlink:href="#DejaVuSans-36"/>
       <use xlink:href="#DejaVuSans-30" x="63.623047"/>
      </g>
     </g>
    </g>
    <g id="xtick_5">
     <g id="line2d_5">
      <g>
       <use xlink:href="#mdbc637609b" x="270.805204" y="201.24" style="stroke: #000000; stroke-width: 0.8"/>
      </g>
     </g>
     <g id="text_5">
      <!-- 80 -->
      <g transform="translate(264.442704 215.838437) scale(0.1 -0.1)">
       <defs>
        <path id="DejaVuSans-38" d="M 2034 2216 
Q 1584 2216 1326 1975 
Q 1069 1734 1069 1313 
Q 1069 891 1326 650 
Q 1584 409 2034 409 
Q 2484 409 2743 651 
Q 3003 894 3003 1313 
Q 3003 1734 2745 1975 
Q 2488 2216 2034 2216 
z
M 1403 2484 
Q 997 2584 770 2862 
Q 544 3141 544 3541 
Q 544 4100 942 4425 
Q 1341 4750 2034 4750 
Q 2731 4750 3128 4425 
Q 3525 4100 3525 3541 
Q 3525 3141 3298 2862 
Q 3072 2584 2669 2484 
Q 3125 2378 3379 2068 
Q 3634 1759 3634 1313 
Q 3634 634 3220 271 
Q 2806 -91 2034 -91 
Q 1263 -91 848 271 
Q 434 634 434 1313 
Q 434 1759 690 2068 
Q 947 2378 1403 2484 
z
M 1172 3481 
Q 1172 3119 1398 2916 
Q 1625 2713 2034 2713 
Q 2441 2713 2670 2916 
Q 2900 3119 2900 3481 
Q 2900 3844 2670 4047 
Q 2441 4250 2034 4250 
Q 1625 4250 1398 4047 
Q 1172 3844 1172 3481 
z
" transform="scale(0.015625)"/>
       </defs>
       <use xlink:href="#DejaVuSans-38"/>
       <use xlink:href="#DejaVuSans-30" x="63.623047"/>
      </g>
     </g>
    </g>
    <g id="xtick_6">
     <g id="line2d_6">
      <g>
       <use xlink:href="#mdbc637609b" x="326.744935" y="201.24" style="stroke: #000000; stroke-width: 0.8"/>
      </g>
     </g>
     <g id="text_6">
      <!-- 100 -->
      <g transform="translate(317.201185 215.838437) scale(0.1 -0.1)">
       <defs>
        <path id="DejaVuSans-31" d="M 794 531 
L 1825 531 
L 1825 4091 
L 703 3866 
L 703 4441 
L 1819 4666 
L 2450 4666 
L 2450 531 
L 3481 531 
L 3481 0 
L 794 0 
L 794 531 
z
" transform="scale(0.015625)"/>
       </defs>
       <use xlink:href="#DejaVuSans-31"/>
       <use xlink:href="#DejaVuSans-30" x="63.623047"/>
       <use xlink:href="#DejaVuSans-30" x="127.246094"/>
      </g>
     </g>
    </g>
   </g>
   <g id="matplotlib.axis_2">
    <g id="ytick_1">
     <g id="line2d_7">
      <defs>
       <path id="mb956e5e0c9" d="M 0 0 
L -3.5 0 
" style="stroke: #000000; stroke-width: 0.8"/>
      </defs>
      <g>
       <use xlink:href="#mb956e5e0c9" x="33.2875" y="186.04391" style="stroke: #000000; stroke-width: 0.8"/>
      </g>
     </g>
     <g id="text_7">
      <!-- 0 -->
      <g transform="translate(19.925 189.843129) scale(0.1 -0.1)">
       <use xlink:href="#DejaVuSans-30"/>
      </g>
     </g>
    </g>
    <g id="ytick_2">
     <g id="line2d_8">
      <g>
       <use xlink:href="#mb956e5e0c9" x="33.2875" y="146.96692" style="stroke: #000000; stroke-width: 0.8"/>
      </g>
     </g>
     <g id="text_8">
      <!-- 50 -->
      <g transform="translate(13.5625 150.766139) scale(0.1 -0.1)">
       <defs>
        <path id="DejaVuSans-35" d="M 691 4666 
L 3169 4666 
L 3169 4134 
L 1269 4134 
L 1269 2991 
Q 1406 3038 1543 3061 
Q 1681 3084 1819 3084 
Q 2600 3084 3056 2656 
Q 3513 2228 3513 1497 
Q 3513 744 3044 326 
Q 2575 -91 1722 -91 
Q 1428 -91 1123 -41 
Q 819 9 494 109 
L 494 744 
Q 775 591 1075 516 
Q 1375 441 1709 441 
Q 2250 441 2565 725 
Q 2881 1009 2881 1497 
Q 2881 1984 2565 2268 
Q 2250 2553 1709 2553 
Q 1456 2553 1204 2497 
Q 953 2441 691 2322 
L 691 4666 
z
" transform="scale(0.015625)"/>
       </defs>
       <use xlink:href="#DejaVuSans-35"/>
       <use xlink:href="#DejaVuSans-30" x="63.623047"/>
      </g>
     </g>
    </g>
    <g id="ytick_3">
     <g id="line2d_9">
      <g>
       <use xlink:href="#mb956e5e0c9" x="33.2875" y="107.88993" style="stroke: #000000; stroke-width: 0.8"/>
      </g>
     </g>
     <g id="text_9">
      <!-- 100 -->
      <g transform="translate(7.2 111.689148) scale(0.1 -0.1)">
       <use xlink:href="#DejaVuSans-31"/>
       <use xlink:href="#DejaVuSans-30" x="63.623047"/>
       <use xlink:href="#DejaVuSans-30" x="127.246094"/>
      </g>
     </g>
    </g>
    <g id="ytick_4">
     <g id="line2d_10">
      <g>
       <use xlink:href="#mb956e5e0c9" x="33.2875" y="68.812939" style="stroke: #000000; stroke-width: 0.8"/>
      </g>
     </g>
     <g id="text_10">
      <!-- 150 -->
      <g transform="translate(7.2 72.612158) scale(0.1 -0.1)">
       <use xlink:href="#DejaVuSans-31"/>
       <use xlink:href="#DejaVuSans-35" x="63.623047"/>
       <use xlink:href="#DejaVuSans-30" x="127.246094"/>
      </g>
     </g>
    </g>
    <g id="ytick_5">
     <g id="line2d_11">
      <g>
       <use xlink:href="#mb956e5e0c9" x="33.2875" y="29.735949" style="stroke: #000000; stroke-width: 0.8"/>
      </g>
     </g>
     <g id="text_11">
      <!-- 200 -->
      <g transform="translate(7.2 33.535168) scale(0.1 -0.1)">
       <use xlink:href="#DejaVuSans-32"/>
       <use xlink:href="#DejaVuSans-30" x="63.623047"/>
       <use xlink:href="#DejaVuSans-30" x="127.246094"/>
      </g>
     </g>
    </g>
   </g>
   <g id="patch_3">
    <path d="M 33.2875 201.24 
L 33.2875 7.2 
" style="fill: none; stroke: #000000; stroke-width: 0.8; stroke-linejoin: miter; stroke-linecap: square"/>
   </g>
   <g id="patch_4">
    <path d="M 340.1875 201.24 
L 340.1875 7.2 
" style="fill: none; stroke: #000000; stroke-width: 0.8; stroke-linejoin: miter; stroke-linecap: square"/>
   </g>
   <g id="patch_5">
    <path d="M 33.2875 201.24 
L 340.1875 201.24 
" style="fill: none; stroke: #000000; stroke-width: 0.8; stroke-linejoin: miter; stroke-linecap: square"/>
   </g>
   <g id="patch_6">
    <path d="M 33.2875 7.2 
L 340.1875 7.2 
" style="fill: none; stroke: #000000; stroke-width: 0.8; stroke-linejoin: miter; stroke-linecap: square"/>
   </g>
  </g>
 </g>
 <defs>
  <clipPath id="p7164396edc">
   <rect x="33.2875" y="7.2" width="306.9" height="194.04"/>
  </clipPath>
 </defs>
</svg>
